<svg id="Layer_1" data-name="Layer 1" xmlns="http://www.w3.org/2000/svg" viewBox="0 0 3128.93 608.19"><defs><style>.cls-1,.cls-2{fill:#8a2c2b;}.cls-2{fill-rule:evenodd;}.cls-3{opacity:0.6;}</style></defs><title>facebook-group</title><path class="cls-1" d="M1045.4,201.28c-16.76,0-28.85,5.49-41.1,11.1V339.12a266.77,266.77,0,0,0,29.6,1.12c40.24,0,45.76-18.43,45.76-44.16V235.54c0-19-6.3-34.26-34.26-34.26Zm-267.27-6.92c-27.92,0-34.3,15.33-34.3,34.31v10.67h68.56V228.67C812.39,209.69,806,194.36,778.13,194.36ZM260.37,326.29c0,15,7.08,22.82,22.72,22.82,16.78,0,26.71-5.47,39-11.09V308H285.37c-17.37,0-25,3.23-25,18.34Zm1045-125c-28,0-37.66,15.26-37.66,34.26V304.9c0,19.05,9.69,34.36,37.66,34.36s37.66-15.31,37.66-34.36V235.54C1343.05,216.54,1333.28,201.28,1305.39,201.28ZM123.3,404.05H41.08v-199H0V136.47H41.09V95.29c0-55.95,23.19-89.21,89.09-89.21h54.87V74.67h-34.3c-25.66,0-27.35,9.59-27.35,27.47l-.1,34.32h62.12L178.16,205H123.3v199Zm281,.52H335.76l-3-17.33a157.07,157.07,0,0,1-77.63,20.14c-50.25,0-77-33.58-77-80,0-54.78,31.21-74.33,87.05-74.33h56.83V241.21c0-28-3.21-36.16-46.2-36.16h-70.3l6.87-68.58h76.84c94.34,0,115,29.81,115,105.3v162.8Zm233-194.5c-42.64-7.31-54.88-8.92-75.4-8.92-36.85,0-48,8.13-48,39.43v59.2c0,31.3,11.14,39.47,48,39.47,20.52,0,32.76-1.64,75.4-9v66.89c-37.35,8.37-61.68,10.57-82.24,10.57-88.27,0-123.36-46.42-123.36-113.47v-48c0-67.11,35.09-113.62,123.36-113.62,20.56,0,44.89,2.21,82.24,10.62v66.85Zm257.3,84.19H743.83v5.52c0,31.3,11.14,39.47,48,39.47,33.12,0,53.34-1.64,95.91-9v66.89c-41.06,8.37-62.45,10.57-102.72,10.57-88.28,0-123.38-46.42-123.38-113.47V239.33c0-58.67,26-106.73,116.5-106.73S894.6,180.1,894.6,239.33Zm267.26,1.26c0,64.82-18.52,112.09-130.74,112.09-40.53,0-64.3-3.56-109-10.44V26.68L1004.29,13V142.56c17.76-6.59,40.75-9.95,61.67-9.95,82.2,0,95.89,36.85,95.89,96.07v66.84Zm263.47,1.41c0,55.92-23.08,110.15-119.66,110.15s-120.14-54.23-120.14-110.15V243c0-55.94,23.51-110.18,120.14-110.18S1425.33,187,1425.33,243v54Zm263.29,0c0,55.92-23.11,110.15-119.67,110.15s-120.14-54.23-120.14-110.15V243c0-55.94,23.51-110.18,120.14-110.18S1688.62,187,1688.62,243v54Zm270.2,107.12h-89.09l-75.35-125.78V404.05h-82.22V26.67L1794.38,13V255.9l75.35-119.43h89.09L1876.56,266.8ZM1568.67,201.28c-27.93,0-37.62,15.26-37.62,34.26v69.35c0,19.06,9.69,34.37,37.62,34.37s37.75-15.31,37.75-34.36V235.54c0-19-9.87-34.26-37.75-34.26Zm437.07,155.83c13.85,0,24.87,11.29,24.87,25.39,0,14.31-11,25.48-25,25.48a25.44,25.44,0,0,1,0-50.87Zm-.1,3.95c-11.16,0-20.28,9.6-20.28,21.44,0,12.06,9.13,21.53,20.38,21.53s20.26-9.47,20.26-21.42-9-21.55-20.26-21.55Zm-4.73,36.21h-4.51V369a51.81,51.81,0,0,1,8-.66c4.28,0,7.08.9,8.8,2.13s2.56,3.16,2.56,5.86c0,3.74-2.46,6-5.5,6.9v.21c2.47.46,4.16,2.7,4.73,6.86.66,4.41,1.34,6.09,1.79,7h-4.73c-.67-.92-1.36-3.5-1.92-7.23s-2.48-5-6.09-5h-3.13v12.2Zm0-15.67h3.27c3.71,0,6.85-1.37,6.85-4.87,0-2.48-1.78-5-6.85-5a23.81,23.81,0,0,0-3.27.22v9.61Z"/><rect class="cls-1" x="2152.75" width="19" height="458"/><path class="cls-1" d="M57.81,594.24c22,0,39.36-10.12,39.36-35.31V547.68a43.59,43.59,0,0,1,.9-8.32h-.45c-6.75,12.82-18.44,20.91-36,20.91-30.36,0-50.38-24.06-50.38-58s18.67-57.13,49-57.13c15.07,0,30.59,5.85,37.56,19.79h.45a13.16,13.16,0,0,1-.45-3.82V447.81h14.85V558.25c0,36-26.54,49.94-54.43,49.94A80,80,0,0,1,21.37,599L27,586.59A70.89,70.89,0,0,0,57.81,594.24Zm6.07-47.69c18,0,33.74-11,33.74-44.31,0-33.06-15.75-43.41-35.76-43.41-22,0-35.09,16.2-35.09,43.19C26.77,529.23,41.61,546.55,63.88,546.55Z"/><path class="cls-1" d="M149.12,447.81h15.07v20.92a46.26,46.26,0,0,1-.9,9h.45c5.63-17.1,18.67-31,36.22-31a26.45,26.45,0,0,1,6.07.67v15.07a29.43,29.43,0,0,0-5.62-.45c-25.42,0-36,28.57-36,51.06V561h-15.3Z"/><path class="cls-1" d="M276.66,445.11c33.06,0,59.83,25.19,59.83,58.71,0,34.19-26.77,59.83-59.83,59.83S217.05,538,217.05,503.82C217.05,470.3,243.59,445.11,276.66,445.11Zm0,104.59c24.29,0,44.08-19.34,44.08-45.88,0-25.64-19.79-45-44.08-45s-43.86,19.35-43.86,45C232.8,530.36,252.36,549.7,276.66,549.7Z"/><path class="cls-1" d="M363.7,447.81h15.52v67.93c0,17.77,2.7,33.51,24.52,33.51,25.86,0,41.83-22.71,41.83-47.23V447.81h15.3V561H445.8V543.18a46.26,46.26,0,0,1,.9-9h-.45c-4.27,11-19.57,29.47-44.54,29.47-26.76,0-38-14.4-38-43.86Z"/><path class="cls-1" d="M497.31,447.81h14.62v11.92a55.57,55.57,0,0,1-.68,8.77h.45c7-14.62,21.82-23.39,39.36-23.39,30.59,0,49.26,24.29,49.26,59.16,0,36-21.14,59.38-50.61,59.38a41.36,41.36,0,0,1-37.33-22.49h-.45a66.79,66.79,0,0,1,.67,9.89v54.89H497.31Zm50.83,102.12c20,0,36.66-16.65,36.66-45.44,0-27.66-14.84-45.43-36-45.43-18.89,0-36.66,13.49-36.66,45.66C512.15,527.44,525,549.93,548.14,549.93Z"/><polygon class="cls-2" points="2328.2 223.67 2311.63 223.67 2311.63 207.1 2328.2 207.1 2328.2 223.67 2328.2 223.67"/><polygon class="cls-2" points="2344.76 223.67 2328.2 223.67 2328.2 207.1 2344.76 207.1 2344.76 223.67 2344.76 223.67"/><polygon class="cls-2" points="2309.7 146.42 2326.28 146.42 2326.28 162.99 2309.7 162.99 2309.7 146.42 2309.7 146.42"/><polygon class="cls-2" points="2301.41 156.59 2317.98 156.59 2317.98 173.16 2301.41 173.16 2301.41 156.59 2301.41 156.59"/><polygon class="cls-2" points="2377.13 207.1 2360.57 207.1 2360.57 190.55 2377.13 190.55 2377.13 207.1 2377.13 207.1"/><polygon class="cls-2" points="2377.13 190.55 2360.57 190.55 2360.57 173.99 2377.13 173.99 2377.13 190.55 2377.13 190.55"/><polygon class="cls-2" points="2377.13 168.06 2360.57 168.06 2360.57 151.51 2377.13 151.51 2377.13 168.06 2377.13 168.06"/><polygon class="cls-2" points="2376.32 113.99 2359.76 113.99 2359.76 97.43 2376.32 97.43 2376.32 113.99 2376.32 113.99"/><polygon class="cls-2" points="2360.57 223.68 2343.99 223.68 2343.99 207.1 2360.57 207.1 2360.57 223.68 2360.57 223.68"/><polygon class="cls-2" points="2456.42 223.68 2472.98 223.68 2472.98 207.12 2456.42 207.12 2456.42 223.68 2456.42 223.68"/><polygon class="cls-2" points="2434.53 223.68 2451.1 223.68 2451.1 207.12 2434.53 207.12 2434.53 223.68 2434.53 223.68"/><polygon class="cls-2" points="2475.18 113.56 2458.62 113.56 2458.62 130.13 2475.18 130.13 2475.18 113.56 2475.18 113.56"/><polygon class="cls-2" points="2500.61 168.09 2484.04 168.09 2484.04 184.64 2500.61 184.64 2500.61 168.09 2500.61 168.09"/><polygon class="cls-2" points="2401.41 207.12 2417.97 207.12 2417.97 190.55 2401.41 190.55 2401.41 207.12 2401.41 207.12"/><polygon class="cls-2" points="2401.41 190.55 2417.97 190.55 2417.97 174.01 2401.41 174.01 2401.41 190.55 2401.41 190.55"/><polygon class="cls-2" points="2377.39 130.54 2393.96 130.54 2393.96 113.99 2377.39 113.99 2377.39 130.54 2377.39 130.54"/><polygon class="cls-2" points="2401.41 173.16 2417.97 173.16 2417.97 156.59 2401.41 156.59 2401.41 173.16 2401.41 173.16"/><polygon class="cls-2" points="2401.41 156.59 2417.97 156.59 2417.97 140.03 2401.41 140.03 2401.41 156.59 2401.41 156.59"/><polygon class="cls-2" points="2417.97 223.68 2434.53 223.68 2434.53 207.12 2417.97 207.12 2417.97 223.68 2417.97 223.68"/><polygon class="cls-2" points="2322.12 248.77 2305.56 248.77 2305.56 265.34 2322.12 265.34 2322.12 248.77 2322.12 248.77"/><polygon class="cls-2" points="2344.76 248.77 2328.2 248.77 2328.2 265.34 2344.76 265.34 2344.76 248.77 2344.76 248.77"/><polygon class="cls-2" points="2301.41 275.58 2284.86 275.58 2284.86 292.14 2301.41 292.14 2301.41 275.58 2301.41 275.58"/><polygon class="cls-2" points="2305 232.21 2288.44 232.21 2288.44 248.77 2305 248.77 2305 232.21 2305 232.21"/><polygon class="cls-2" points="2309.7 326.01 2326.28 326.01 2326.28 309.46 2309.7 309.46 2309.7 326.01 2309.7 326.01"/><polygon class="cls-2" points="2301.41 315.85 2317.98 315.85 2317.98 299.29 2301.41 299.29 2301.41 315.85 2301.41 315.85"/><polygon class="cls-2" points="2377.13 265.34 2360.57 265.34 2360.57 281.9 2377.13 281.9 2377.13 265.34 2377.13 265.34"/><polygon class="cls-2" points="2377.13 281.9 2360.57 281.9 2360.57 298.45 2377.13 298.45 2377.13 281.9 2377.13 281.9"/><polygon class="cls-2" points="2377.13 299.29 2360.57 299.29 2360.57 315.85 2377.13 315.85 2377.13 299.29 2377.13 299.29"/><polygon class="cls-2" points="2377.13 315.85 2360.57 315.85 2360.57 332.41 2377.13 332.41 2377.13 315.85 2377.13 315.85"/><polygon class="cls-2" points="2377.13 332.89 2360.57 332.89 2360.57 349.45 2377.13 349.45 2377.13 332.89 2377.13 332.89"/><polygon class="cls-2" points="2396.05 349.54 2379.47 349.54 2379.47 366.09 2396.05 366.09 2396.05 349.54 2396.05 349.54"/><polygon class="cls-2" points="2396.11 382.33 2379.56 382.33 2379.56 398.89 2396.11 398.89 2396.11 382.33 2396.11 382.33"/><polygon class="cls-2" points="2360.57 248.77 2343.99 248.77 2343.99 265.34 2360.57 265.34 2360.57 248.77 2360.57 248.77"/><polygon class="cls-2" points="2434.53 248.79 2451.1 248.79 2451.1 265.34 2434.53 265.34 2434.53 248.79 2434.53 248.79"/><polygon class="cls-2" points="2450.34 248.78 2466.89 248.78 2466.89 265.34 2450.34 265.34 2450.34 248.78 2450.34 248.78"/><polygon class="cls-2" points="2475.18 358.9 2458.62 358.9 2458.62 342.34 2475.18 342.34 2475.18 358.9 2475.18 358.9"/><polygon class="cls-2" points="2500.61 304.38 2484.04 304.38 2484.04 287.81 2500.61 287.81 2500.61 304.38 2500.61 304.38"/><polygon class="cls-2" points="2401.41 265.34 2417.97 265.34 2417.97 281.9 2401.41 281.9 2401.41 265.34 2401.41 265.34"/><polygon class="cls-2" points="2401.41 281.9 2417.97 281.9 2417.97 298.46 2401.41 298.46 2401.41 281.9 2401.41 281.9"/><polygon class="cls-2" points="2401.41 299.29 2417.97 299.29 2417.97 315.85 2401.41 315.85 2401.41 299.29 2401.41 299.29"/><polygon class="cls-2" points="2401.41 315.85 2417.97 315.85 2417.97 332.41 2401.41 332.41 2401.41 315.85 2401.41 315.85"/><polygon class="cls-2" points="2396.22 364.54 2412.78 364.54 2412.78 381.09 2396.22 381.09 2396.22 364.54 2396.22 364.54"/><polygon class="cls-2" points="2417.97 248.78 2434.53 248.78 2434.53 265.34 2417.97 265.34 2417.97 248.78 2417.97 248.78"/><path class="cls-1" d="M2571.53,175.54l9.7,13.71,9.69-13.47-2.88-.08v-6.25h20.53v6.33l-8,.32-14.1,19.17L2601.1,215l8.51.24-.48,6.33H2588v-5.93l2.72-.08-9.86-13.79h-.08l-9.69,13.47,2.88.08v6.25h-20.84l-.4-6.33,8.42-.32,14.35-19.24-14.43-20-7.94-.24.32-5.93h20.93v5.93Z"/><path class="cls-1" d="M2612.89,221.56l-.4-6.33,6.24-.32V175.7l-6.32-.32.4-5.93h21.64c12.67,0,20.2,4.73,20.2,16.12,0,13.14-10.5,18.67-20,18.67h-7.38v11.55l7.54.24-.4,5.53Zm14.34-45.62V198h5.7c6.57,0,12.34-3.21,12.34-11.86,0-7.62-5.05-10.19-12.34-10.19Z"/><path class="cls-1" d="M2696.57,221.56l-.4-5.93,6.17-.32V186.37l.32-3.85h-.16l-27,37.92-.48,1.12h-14.27l-.4-6.33,6.24-.32V175.7l-6.32-.32.4-5.93h20.6v5.93l-6,.32V205l-.4,3.45h.16l27.17-37.92.48-1.12H2717v5.93l-6,.32v39.61l6.33.32-.4,5.93Z"/><path class="cls-1" d="M2761.49,188.13l-.72-9.54a14.88,14.88,0,0,0-9.46-3.13c-10.1,0-17.63,6.9-17.63,19.48s7,20.61,18.52,20.61c10.58,0,17-7.94,17-7.94l3.44,5.69s-6.33,9.54-21.33,9.54c-18,0-27-11.46-27-27.9s11.15-26.69,25.73-26.69a21.66,21.66,0,0,1,11.7,3.69l1.45-3h5.37v19.16Z"/><path class="cls-1" d="M2773.52,183.4l.4-14.35,7.77.4h29.74l7.78-.4V183.4h-6.66l-.56-7.05h-11.06v38.56l6.26.32-.41,6.33h-20.84l-.4-6.33,6.17-.32V176.35h-10.82l-.8,7.05Z"/><path class="cls-1" d="M2858.32,221.56l-.4-5.93,6.17-.32V186.37l.32-3.85h-.16l-27,37.92-.48,1.12h-14.27l-.4-6.33,6.25-.32V175.7l-6.33-.32.4-5.93H2843v5.93l-6,.32V205l-.4,3.45h.16l27.17-37.92.48-1.12h14.35v5.93l-6,.32v39.61l6.33.32-.4,5.93Z"/><path class="cls-1" d="M2883.89,221.56l-.4-6.33,7.05-.16,7.62-13.71a16.47,16.47,0,0,1-11.23-16c0-10.91,8.42-16,18-16h26.22v6.33l-6,.32v39.21l6.34.32-.4,5.93h-20.29l-.4-5.53,6.17-.32V202.4h-10.9l-8,15.79-2.57,3.37Zm20.92-26.13h11.78V176h-11c-5,0-9.94,3-9.94,9.15S2900.4,195.43,2904.81,195.43Z"/><path class="cls-1" d="M2938.15,221.56l-.4-6.33,6.25-.32V175.7l-6.33-.32.4-5.93h21v6.33l-5.94.32v16.2h25.42V176.1l-6.26-.32.4-6.33h21v6.33l-6,.32v39.21l6.34.32-.4,5.93h-20.85l-.4-6.33,6.18-.32V199h-25.42v16l6.26.32-.4,6.33Z"/><path class="cls-1" d="M3036.5,221.56l-.4-5.93,6.18-.32V186.37l.32-3.85h-.16l-27,37.92-.48,1.12h-14.27l-.4-6.33,6.25-.32V175.7l-6.33-.32.4-5.93h20.61v5.93l-6,.32V205l-.4,3.45h.16l27.18-37.92.48-1.12H3057v5.93l-6,.32v39.61l6.34.32-.4,5.93Z"/><path class="cls-1" d="M2556.45,314.7l-.32-18.19h4.74c4.24-7.7,7.37-18.68,7.69-42l-6.81-.24.32-4.65h44.17v4.81l-6.26.24v41.85H2607l-.64,18.19h-5.62l-.72-13h-37.43l-.88,13Zm18.21-59.88c-.32,22.69-3.29,33.75-7.39,41.69h26.14V254.82Z"/><path class="cls-1" d="M2612.48,296.19a6.58,6.58,0,0,0,2.49.4c7.61,0,12.18-12.59,12.58-42.09l-7.13-.24.24-4.65H2664v4.81l-6.16.24v42.09l6.4.16-.32,4.8H2645l-.32-4.8,6.41-.24V254.82h-17.31c-.08,32.23-7.06,47.78-17.4,47.78a8.3,8.3,0,0,1-4.25-.89Z"/><path class="cls-1" d="M2669.39,301.71l-.32-4.8,7-.16,8.58-15.88A16.1,16.1,0,0,1,2672.76,265c0-10.58,8.58-15.39,17.23-15.39h25.5v4.81l-6.25.24V297l6.41.24-.32,4.48h-18.52l-.32-4.16,6.41-.24V281.59h-12.67l-8.49,16.84-2.33,3.28Zm20.44-25.32h13.07V254.58h-12.43c-5.2,0-11.22,3.28-11.22,10.26S2684.87,276.39,2689.83,276.39Z"/><g class="cls-3"><polygon class="cls-2" points="2338.68 151.51 2355.26 151.51 2355.26 168.06 2338.68 168.06 2338.68 151.51 2338.68 151.51"/></g><g class="cls-3"><polygon class="cls-2" points="2322.13 168.06 2338.68 168.06 2338.68 184.64 2322.13 184.64 2322.13 168.06 2322.13 168.06"/></g><g class="cls-3"><polygon class="cls-2" points="2290.09 138.13 2306.65 138.13 2306.65 154.72 2290.09 154.72 2290.09 138.13 2290.09 138.13"/></g><g class="cls-3"><polygon class="cls-2" points="2305.55 184.64 2322.13 184.64 2322.13 201.21 2305.55 201.21 2305.55 184.64 2305.55 184.64"/></g><g class="cls-3"><polygon class="cls-2" points="2357.91 186.52 2341.34 186.52 2341.34 169.96 2357.91 169.96 2357.91 186.52 2357.91 186.52"/></g><g class="cls-3"><polygon class="cls-2" points="2341.34 203.08 2324.77 203.08 2324.77 186.52 2341.34 186.52 2341.34 203.08 2341.34 203.08"/></g><g class="cls-3"><polygon class="cls-2" points="2377.12 223.67 2360.57 223.67 2360.57 207.11 2377.12 207.11 2377.12 223.67 2377.12 223.67"/></g><g class="cls-3"><polygon class="cls-2" points="2357.91 203.08 2341.35 203.08 2341.35 186.53 2357.91 186.53 2357.91 203.08 2357.91 203.08"/></g><g class="cls-3"><polygon class="cls-2" points="2439.85 151.52 2423.29 151.52 2423.29 168.09 2439.85 168.09 2439.85 151.52 2439.85 151.52"/></g><g class="cls-3"><polygon class="cls-2" points="2456.41 168.09 2439.85 168.09 2439.85 184.67 2456.41 184.67 2456.41 168.09 2456.41 168.09"/></g><g class="cls-3"><polygon class="cls-2" points="2496.72 105.28 2480.16 105.28 2480.16 121.85 2496.72 121.85 2496.72 105.28 2496.72 105.28"/></g><g class="cls-3"><polygon class="cls-2" points="2472.98 184.67 2456.41 184.67 2456.41 201.21 2472.98 201.21 2472.98 184.67 2472.98 184.67"/></g><g class="cls-3"><polygon class="cls-2" points="2420.63 186.53 2437.2 186.53 2437.2 169.97 2420.63 169.97 2420.63 186.53 2420.63 186.53"/></g><g class="cls-3"><polygon class="cls-2" points="2437.2 203.1 2453.76 203.1 2453.76 186.53 2437.2 186.53 2437.2 203.1 2437.2 203.1"/></g><g class="cls-3"><polygon class="cls-2" points="2401.43 223.68 2417.97 223.68 2417.97 207.13 2401.43 207.13 2401.43 223.68 2401.43 223.68"/></g><g class="cls-3"><polygon class="cls-2" points="2420.63 203.1 2437.19 203.1 2437.19 186.54 2420.63 186.54 2420.63 203.1 2420.63 203.1"/></g><g class="cls-3"><polygon class="cls-2" points="2276.82 232.21 2260.26 232.21 2260.26 248.77 2276.82 248.77 2276.82 232.21 2276.82 232.21"/></g><g class="cls-3"><polygon class="cls-2" points="2338.68 320.94 2355.26 320.94 2355.26 304.38 2338.68 304.38 2338.68 320.94 2338.68 320.94"/></g><g class="cls-3"><polygon class="cls-2" points="2322.13 304.38 2338.68 304.38 2338.68 287.81 2322.13 287.81 2322.13 304.38 2322.13 304.38"/></g><g class="cls-3"><polygon class="cls-2" points="2290.09 334.3 2306.65 334.3 2306.65 317.73 2290.09 317.73 2290.09 334.3 2290.09 334.3"/></g><g class="cls-3"><polygon class="cls-2" points="2305.55 287.8 2322.13 287.8 2322.13 271.24 2305.55 271.24 2305.55 287.8 2305.55 287.8"/></g><g class="cls-3"><polygon class="cls-2" points="2357.91 285.93 2341.34 285.93 2341.34 302.5 2357.91 302.5 2357.91 285.93 2357.91 285.93"/></g><g class="cls-3"><polygon class="cls-2" points="2341.34 269.37 2324.77 269.37 2324.77 285.93 2341.34 285.93 2341.34 269.37 2341.34 269.37"/></g><g class="cls-3"><polygon class="cls-2" points="2377.12 248.77 2360.57 248.77 2360.57 265.34 2377.12 265.34 2377.12 248.77 2377.12 248.77"/></g><g class="cls-3"><polygon class="cls-2" points="2357.91 269.37 2341.35 269.37 2341.35 285.91 2357.91 285.91 2357.91 269.37 2357.91 269.37"/></g><g class="cls-3"><polygon class="cls-2" points="2439.85 320.95 2423.29 320.95 2423.29 304.39 2439.85 304.39 2439.85 320.95 2439.85 320.95"/></g><g class="cls-3"><polygon class="cls-2" points="2456.41 304.39 2439.85 304.39 2439.85 287.81 2456.41 287.81 2456.41 304.39 2456.41 304.39"/></g><g class="cls-3"><polygon class="cls-2" points="2496.72 367.19 2480.16 367.19 2480.16 350.61 2496.72 350.61 2496.72 367.19 2496.72 367.19"/></g><g class="cls-3"><polygon class="cls-2" points="2472.98 287.81 2456.41 287.81 2456.41 271.25 2472.98 271.25 2472.98 287.81 2472.98 287.81"/></g><g class="cls-3"><polygon class="cls-2" points="2420.63 285.93 2437.2 285.93 2437.2 302.5 2420.63 302.5 2420.63 285.93 2420.63 285.93"/></g><g class="cls-3"><polygon class="cls-2" points="2437.2 269.37 2453.76 269.37 2453.76 285.93 2437.2 285.93 2437.2 269.37 2437.2 269.37"/></g><g class="cls-3"><polygon class="cls-2" points="2401.43 248.79 2417.97 248.79 2417.97 265.34 2401.43 265.34 2401.43 248.79 2401.43 248.79"/></g><g class="cls-3"><polygon class="cls-2" points="2420.63 269.37 2437.19 269.37 2437.19 285.93 2420.63 285.93 2420.63 269.37 2420.63 269.37"/></g><g class="cls-3"><path class="cls-1" d="M2765.82,260l7.38,14.35h.4l4.89-13.87-3-.16.64-10.74h22.61v10l-5.21.32-12,26.7c-5.77,12.82-12.42,16.75-25.73,16.75-5.93,0-8.82-1.77-8.82-1.77l-.8-16.27,10.82-.72,1.21,7.05a8.26,8.26,0,0,0,7-3.12L2748.59,260l-7.14-.4.64-10h26.22v10Z"/></g><g class="cls-3"><path class="cls-1" d="M2801.17,301.71l-.72-10.74,5.77-.56V260.27l-5.77-.64.72-10H2826v9.3l-3.84.64v9.94l3.93-1,7.46-9.54-.57-.08v-9.3h24.22v10.74l-9.63.4-10,12.27,13.15,17.71,9.22.16-.72,10.82h-19.73l-3.76-2.88L2825,282.4l-2.8,1.44v6.65l6,.4-.72,10.82Z"/></g><g class="cls-3"><path class="cls-1" d="M2863.13,301.71l-.72-10.74,5.77-.56V260.27l-5.77-.64.72-10h25.41c14,0,22.2,5,22.2,17.39,0,13.55-11.86,19.81-21.8,19.81h-5.85v5l7.45.49-.72,9.37Zm20-41v15.48h2.8c5.05,0,8.34-2.17,8.34-8.19s-3.77-7.29-8.34-7.29Z"/></g><g class="cls-3"><path class="cls-1" d="M2907.93,301.71l-.72-10.74,5.05-.48,14.43-40.88h20.76l14.35,41.6,4.89.4-.72,10.1h-24.13v-8.57l3.77-.56-1.44-4h-16.76l-1.28,3.36,4.65.49-.73,9.29ZM2935.75,262l-5.21,16.75H2941l-5-16.75Z"/></g><g class="cls-3"><path class="cls-1" d="M2973.34,245.44c-4.57,0-7.62-3.29-7.62-7.14,0-3.44,2.41-7.13,7.62-7.13,4.81,0,7.45,3.29,7.45,7.13A7.13,7.13,0,0,1,2973.34,245.44Zm-3.53,56.27-.72-10.74,5.77-.56V260.27l-5.77-.64.72-10h26.3v10.74l-5.3.56v30.22l6,.48-.72,10.1Zm22.45-56.27c-4.57,0-7.62-3.29-7.62-7.14,0-3.44,2.41-7.13,7.62-7.13,4.81,0,7.45,3.29,7.45,7.13A7.12,7.12,0,0,1,2992.26,245.44Z"/></g><g class="cls-3"><path class="cls-1" d="M3002.19,301.71l-.72-10.74,5.78-.56V260.27l-5.78-.64.72-10h26.3v10.74l-5.29.56v8.9h17.47v-8.9l-5.85-.56.72-10.74h26.3v10.74l-5.21.56v30.22l5.93.48-.72,10.1h-26.3l-.72-10.74,5.85-.56v-9.22H3023.2v9.3l6,.4-.72,10.82Z"/></g><g class="cls-3"><path class="cls-1" d="M3102.87,301.71l-.72-10,5.61-.64V279.27l.4-6.81h-.24l-19.4,27.25-.88,2h-19.72L3067.2,291l5.77-.56V260.27l-5.77-.64.72-10h25.5v10l-5.22.64v12.51l-.48,6.17h.24l19.64-27.33.88-2h19.73v10l-5.22.64v30.86l5.94.48-.72,10.1Z"/></g></svg>