<svg id="svg8" xmlns="http://www.w3.org/2000/svg" viewBox="0 0 438.98 438.98"><defs><style>.cls-1{fill:#f2f2f2;}</style></defs><title>facebook-qr-page</title><polygon class="cls-1" points="272.47 0 257.33 0 242.2 0 227.06 0 227.06 15.14 227.06 30.27 242.2 30.27 257.33 30.27 257.33 45.41 257.33 60.55 242.2 60.55 242.2 75.69 257.33 75.69 272.47 75.69 272.47 60.55 287.61 60.55 302.75 60.55 302.75 45.41 287.61 45.41 272.47 45.41 272.47 30.27 272.47 15.14 287.61 15.14 287.61 30.27 302.75 30.27 302.75 15.14 302.75 0 287.61 0 272.47 0"/><polygon class="cls-1" points="378.43 0 363.3 0 348.16 0 333.02 0 333.02 15.14 333.02 30.27 333.02 45.41 333.02 60.55 333.02 75.69 333.02 90.82 333.02 105.96 348.16 105.96 363.3 105.96 378.43 105.96 393.57 105.96 408.71 105.96 408.71 90.82 393.57 90.82 378.43 90.82 363.3 90.82 348.16 90.82 348.16 75.69 348.16 60.55 348.16 45.41 348.16 30.27 348.16 15.14 363.3 15.14 378.43 15.14 393.57 15.14 408.71 15.14 408.71 0 393.57 0 378.43 0"/><polygon class="cls-1" points="423.85 0 408.71 0 408.71 15.14 423.85 15.14 423.85 30.27 423.85 45.41 423.85 60.55 423.85 75.69 423.85 90.82 408.71 90.82 408.71 105.96 423.85 105.96 438.98 105.96 438.98 90.82 438.98 75.69 438.98 60.55 438.98 45.41 438.98 30.27 438.98 15.14 438.98 0 423.85 0"/><polygon class="cls-1" points="211.92 45.41 211.92 30.27 196.78 30.27 196.78 15.14 196.78 0 181.65 0 181.65 15.14 181.65 30.27 181.65 45.41 196.78 45.41 211.92 45.41"/><polygon class="cls-1" points="378.43 30.27 363.3 30.27 363.3 45.41 363.3 60.55 363.3 75.69 378.43 75.69 393.57 75.69 408.71 75.69 408.71 60.55 408.71 45.41 408.71 30.27 393.57 30.27 378.43 30.27"/><rect class="cls-1" x="302.75" y="45.41" width="15.14" height="15.14"/><polygon class="cls-1" points="60.55 75.69 75.69 75.69 75.69 60.55 75.69 45.41 75.69 30.27 60.55 30.27 45.41 30.27 30.27 30.27 30.27 45.41 30.27 60.55 30.27 75.69 45.41 75.69 60.55 75.69"/><polygon class="cls-1" points="136.24 75.69 136.24 60.55 151.37 60.55 151.37 75.69 166.51 75.69 166.51 90.82 181.65 90.82 181.65 75.69 196.78 75.69 196.78 60.55 181.65 60.55 181.65 45.41 166.51 45.41 151.37 45.41 151.37 30.27 151.37 15.14 151.37 0 136.24 0 136.24 15.14 121.1 15.14 121.1 30.27 121.1 45.41 121.1 60.55 121.1 75.69 121.1 90.82 121.1 105.96 136.24 105.96 136.24 90.82 136.24 75.69"/><path class="cls-1" d="M30.27,106H106V0H0V106H30.27ZM15.14,75.69V15.14H90.82V90.82H15.14Z"/><rect class="cls-1" x="242.2" y="90.82" width="15.14" height="15.14"/><polygon class="cls-1" points="317.88 90.82 317.88 75.69 302.75 75.69 302.75 90.82 302.75 105.96 317.88 105.96 317.88 90.82"/><rect class="cls-1" x="30.27" y="121.1" width="15.14" height="15.14"/><polygon class="cls-1" points="211.92 121.1 196.78 121.1 196.78 105.96 196.78 90.82 181.65 90.82 181.65 105.96 181.65 121.1 181.65 136.24 181.65 151.37 181.65 166.51 181.65 181.65 166.51 181.65 166.51 196.78 181.65 196.78 196.78 196.78 196.78 181.65 196.78 166.51 196.78 151.37 211.92 151.37 211.92 136.24 211.92 121.1"/><rect class="cls-1" x="317.88" y="121.1" width="15.14" height="15.14"/><polygon class="cls-1" points="378.43 121.1 363.3 121.1 348.16 121.1 348.16 136.24 333.02 136.24 333.02 151.37 348.16 151.37 363.3 151.37 363.3 136.24 378.43 136.24 393.57 136.24 408.71 136.24 408.71 121.1 393.57 121.1 378.43 121.1"/><rect class="cls-1" x="408.71" y="121.1" width="15.14" height="15.14"/><rect class="cls-1" x="15.14" y="136.24" width="15.14" height="15.14"/><path class="cls-1" d="M287.61,136.24V90.82H272.47V121.1H242.2V106H227.06V90.82H211.92V106h15.14v30.28h45.41v15.13H211.92v30.28h15.14v15.14h30.27V181.65h30.28V166.51h15.14V151.37H287.61Zm-60.55,45.41V166.51H242.2v15.14Z"/><polygon class="cls-1" points="423.85 151.37 423.85 166.51 423.85 181.65 423.85 196.78 423.85 211.92 423.85 227.06 438.98 227.06 438.98 211.92 438.98 196.78 438.98 181.65 438.98 166.51 438.98 151.37 438.98 136.24 423.85 136.24 423.85 151.37"/><rect class="cls-1" x="90.82" y="151.37" width="15.14" height="15.14"/><rect class="cls-1" x="363.3" y="151.37" width="15.14" height="15.14"/><rect class="cls-1" x="393.57" y="151.37" width="15.14" height="15.14"/><rect class="cls-1" x="15.14" y="166.51" width="15.14" height="15.14"/><rect class="cls-1" x="45.41" y="166.51" width="15.14" height="15.14"/><polygon class="cls-1" points="136.24 181.65 136.24 166.51 151.37 166.51 151.37 151.37 151.37 136.24 151.37 121.1 151.37 105.96 166.51 105.96 166.51 90.82 151.37 90.82 151.37 105.96 136.24 105.96 136.24 121.1 121.1 121.1 105.96 121.1 90.82 121.1 75.69 121.1 75.69 136.24 75.69 151.37 90.82 151.37 90.82 136.24 105.96 136.24 105.96 151.37 121.1 151.37 121.1 136.24 136.24 136.24 136.24 151.37 121.1 151.37 121.1 166.51 105.96 166.51 105.96 181.65 121.1 181.65 136.24 181.65"/><rect class="cls-1" x="317.88" y="166.51" width="15.14" height="15.14"/><polygon class="cls-1" points="333.02 166.51 333.02 181.65 333.02 196.78 333.02 211.92 348.16 211.92 348.16 196.78 363.3 196.78 363.3 181.65 363.3 166.51 348.16 166.51 333.02 166.51"/><rect class="cls-1" x="90.82" y="181.65" width="15.14" height="15.14"/><path class="cls-1" d="M151.37,181.65H136.24v15.14h15.13v15.13H136.24V196.79H121.1v15.13H90.82v15.14H106V242.2H90.82v15.13h106V242.2H166.51V227.06H151.37V211.92h15.14V196.79H151.37ZM121.1,242.2V227.06h15.14V242.2Z"/><polygon class="cls-1" points="302.75 196.78 302.75 211.92 302.75 227.06 317.88 227.06 317.88 242.2 333.02 242.2 333.02 227.06 333.02 211.92 317.88 211.92 317.88 196.78 317.88 181.65 302.75 181.65 302.75 196.78"/><polygon class="cls-1" points="378.43 196.78 393.57 196.78 393.57 181.65 393.57 166.51 378.43 166.51 378.43 181.65 378.43 196.78"/><polygon class="cls-1" points="287.61 211.92 272.47 211.92 272.47 227.06 287.61 227.06 287.61 242.2 287.61 257.33 302.75 257.33 302.75 242.2 302.75 227.06 302.75 211.92 302.75 196.78 302.75 181.65 287.61 181.65 287.61 196.78 287.61 211.92"/><polygon class="cls-1" points="393.57 227.06 393.57 211.92 378.43 211.92 363.3 211.92 363.3 227.06 378.43 227.06 393.57 227.06"/><polygon class="cls-1" points="45.41 227.06 45.41 211.92 60.55 211.92 75.69 211.92 90.82 211.92 90.82 196.78 75.69 196.78 60.55 196.78 45.41 196.78 45.41 181.65 30.27 181.65 30.27 196.78 15.14 196.78 15.14 211.92 15.14 227.06 30.27 227.06 30.27 242.2 30.27 257.33 45.41 257.33 60.55 257.33 60.55 242.2 45.41 242.2 45.41 227.06"/><polygon class="cls-1" points="75.69 227.06 60.55 227.06 60.55 242.2 75.69 242.2 90.82 242.2 90.82 227.06 75.69 227.06"/><polygon class="cls-1" points="408.71 242.2 408.71 257.33 423.85 257.33 423.85 242.2 423.85 227.06 408.71 227.06 408.71 242.2"/><rect class="cls-1" x="302.75" y="242.2" width="15.14" height="15.14"/><polygon class="cls-1" points="348.16 242.2 363.3 242.2 363.3 227.06 348.16 227.06 333.02 227.06 333.02 242.2 333.02 257.33 348.16 257.33 348.16 242.2"/><rect class="cls-1" x="378.43" y="242.2" width="15.14" height="15.14"/><rect class="cls-1" x="15.14" y="257.33" width="15.14" height="15.14"/><polygon class="cls-1" points="166.51 257.33 151.37 257.33 151.37 272.47 151.37 287.61 166.51 287.61 166.51 272.47 166.51 257.33"/><rect class="cls-1" x="257.33" y="257.33" width="15.14" height="15.14"/><polygon class="cls-1" points="302.75 257.33 302.75 272.47 302.75 287.61 302.75 302.75 302.75 317.88 302.75 333.02 317.88 333.02 317.88 317.88 333.02 317.88 333.02 302.75 333.02 287.61 333.02 272.47 333.02 257.33 317.88 257.33 302.75 257.33"/><polygon class="cls-1" points="378.43 257.33 378.43 272.47 363.3 272.47 363.3 257.33 348.16 257.33 333.02 257.33 333.02 272.47 333.02 287.61 333.02 302.75 333.02 317.88 348.16 317.88 363.3 317.88 363.3 333.02 378.43 333.02 393.57 333.02 408.71 333.02 408.71 317.88 393.57 317.88 378.43 317.88 378.43 302.75 363.3 302.75 363.3 287.61 378.43 287.61 378.43 302.75 393.57 302.75 393.57 287.61 393.57 272.47 408.71 272.47 408.71 257.33 393.57 257.33 378.43 257.33"/><polygon class="cls-1" points="423.85 272.47 423.85 287.61 438.98 287.61 438.98 272.47 438.98 257.33 423.85 257.33 423.85 272.47"/><polygon class="cls-1" points="105.96 287.61 121.1 287.61 136.24 287.61 136.24 272.47 121.1 272.47 121.1 257.33 105.96 257.33 105.96 272.47 90.82 272.47 75.69 272.47 75.69 287.61 75.69 302.75 90.82 302.75 90.82 287.61 105.96 287.61"/><polygon class="cls-1" points="272.47 287.61 272.47 302.75 287.61 302.75 302.75 302.75 302.75 287.61 287.61 287.61 272.47 287.61"/><polygon class="cls-1" points="45.41 302.75 45.41 287.61 60.55 287.61 60.55 272.47 75.69 272.47 75.69 257.33 60.55 257.33 45.41 257.33 45.41 272.47 30.27 272.47 30.27 287.61 15.14 287.61 15.14 302.75 30.27 302.75 30.27 317.88 45.41 317.88 60.55 317.88 75.69 317.88 75.69 302.75 60.55 302.75 45.41 302.75"/><rect class="cls-1" x="90.82" y="302.75" width="15.14" height="15.14"/><path class="cls-1" d="M151.37,302.75H136.24v15.13H121.1V333h45.41V317.88h45.41V302.75H242.2V287.61h15.13V272.47H227.06V257.33H181.65v30.28H166.51v15.14Zm45.42-30.28h15.13v15.14H196.79Z"/><polygon class="cls-1" points="257.33 317.88 242.2 317.88 242.2 333.02 257.33 333.02 272.47 333.02 272.47 317.88 272.47 302.75 257.33 302.75 257.33 317.88"/><polygon class="cls-1" points="423.85 317.88 423.85 333.02 438.98 333.02 438.98 317.88 438.98 302.75 423.85 302.75 423.85 317.88"/><rect class="cls-1" x="287.61" y="317.88" width="15.14" height="15.14"/><polygon class="cls-1" points="75.69 333.02 60.55 333.02 45.41 333.02 30.27 333.02 15.14 333.02 0 333.02 0 348.16 0 363.3 0 378.43 0 393.57 0 408.71 15.14 408.71 15.14 393.57 15.14 378.43 15.14 363.3 15.14 348.16 30.27 348.16 45.41 348.16 60.55 348.16 75.69 348.16 90.82 348.16 90.82 363.3 90.82 378.43 90.82 393.57 90.82 408.71 105.96 408.71 105.96 393.57 105.96 378.43 105.96 363.3 105.96 348.16 105.96 333.02 90.82 333.02 75.69 333.02"/><polygon class="cls-1" points="121.1 348.16 121.1 363.3 136.24 363.3 136.24 348.16 136.24 333.02 121.1 333.02 121.1 348.16"/><polygon class="cls-1" points="287.61 348.16 287.61 333.02 272.47 333.02 257.33 333.02 257.33 348.16 257.33 363.3 272.47 363.3 272.47 348.16 287.61 348.16"/><rect class="cls-1" x="333.02" y="333.02" width="15.14" height="15.14"/><polygon class="cls-1" points="363.3 333.02 363.3 348.16 363.3 363.3 348.16 363.3 333.02 363.3 333.02 378.43 348.16 378.43 363.3 378.43 363.3 393.57 363.3 408.71 378.43 408.71 378.43 393.57 378.43 378.43 393.57 378.43 393.57 363.3 393.57 348.16 393.57 333.02 378.43 333.02 363.3 333.02"/><rect class="cls-1" x="423.84" y="333.02" width="15.14" height="15.14"/><polygon class="cls-1" points="287.61 363.3 272.47 363.3 272.47 378.43 257.33 378.43 242.2 378.43 242.2 393.57 227.06 393.57 227.06 393.57 211.92 393.57 196.78 393.57 196.78 408.71 211.92 408.71 227.06 408.71 227.06 408.71 242.2 408.71 257.33 408.71 257.33 393.57 272.47 393.57 287.61 393.57 287.61 378.43 302.75 378.43 302.75 363.3 302.75 348.16 287.61 348.16 287.61 363.3"/><polygon class="cls-1" points="317.88 348.16 317.88 333.02 302.75 333.02 302.75 348.16 302.75 363.3 302.75 378.43 317.88 378.43 317.88 393.57 317.88 408.71 333.02 408.71 333.02 393.57 333.02 378.43 333.02 363.3 317.88 363.3 317.88 348.16"/><polygon class="cls-1" points="227.06 363.3 227.06 348.16 242.2 348.16 242.2 333.02 227.06 333.02 227.06 333.02 211.92 333.02 211.92 348.16 196.78 348.16 181.65 348.16 181.65 333.02 166.51 333.02 166.51 348.16 151.37 348.16 151.37 363.3 166.51 363.3 181.65 363.3 196.78 363.3 211.92 363.3 227.06 363.3 227.06 378.43 242.2 378.43 242.2 363.3 227.06 363.3"/><rect class="cls-1" x="423.84" y="363.3" width="15.14" height="15.14"/><polygon class="cls-1" points="408.71 393.57 408.71 408.71 423.85 408.71 438.98 408.71 438.98 393.57 423.85 393.57 423.85 378.43 408.71 378.43 408.71 393.57"/><polygon class="cls-1" points="60.55 408.71 75.69 408.71 75.69 393.57 75.69 378.43 75.69 363.3 60.55 363.3 45.41 363.3 30.27 363.3 30.27 378.43 30.27 393.57 30.27 408.71 45.41 408.71 60.55 408.71"/><polygon class="cls-1" points="151.37 408.71 151.37 393.57 136.24 393.57 121.1 393.57 121.1 408.71 136.24 408.71 151.37 408.71"/><rect class="cls-1" x="166.51" y="393.57" width="15.14" height="15.14"/><rect class="cls-1" x="287.61" y="393.57" width="15.14" height="15.14"/><polygon class="cls-1" points="90.82 423.85 75.69 423.85 60.55 423.85 45.41 423.85 30.27 423.85 15.14 423.85 15.14 408.71 0 408.71 0 423.85 0 438.98 15.14 438.98 30.27 438.98 45.41 438.98 60.55 438.98 75.69 438.98 90.82 438.98 105.96 438.98 105.96 423.85 105.96 408.71 90.82 408.71 90.82 423.85"/><polygon class="cls-1" points="151.37 408.71 136.24 408.71 136.24 423.85 151.37 423.85 151.37 438.98 166.51 438.98 166.51 423.85 151.37 423.85 151.37 408.71"/><rect class="cls-1" x="166.51" y="408.71" width="15.14" height="15.14"/><polygon class="cls-1" points="196.78 423.85 181.65 423.85 181.65 438.98 196.78 438.98 211.92 438.98 211.92 423.85 211.92 408.71 196.78 408.71 196.78 423.85"/><polygon class="cls-1" points="227.06 408.71 227.06 423.85 242.2 423.85 257.33 423.85 257.33 408.71 242.2 408.71 227.06 408.71"/><rect class="cls-1" x="272.47" y="408.71" width="15.14" height="15.14"/><rect class="cls-1" x="348.16" y="408.71" width="15.14" height="15.14"/><rect class="cls-1" x="287.61" y="423.84" width="15.14" height="15.14"/><polygon class="cls-1" points="302.75 423.85 302.75 438.98 317.88 438.98 333.02 438.98 333.02 423.85 317.88 423.85 302.75 423.85"/><rect class="cls-1" x="423.84" y="423.84" width="15.14" height="15.14"/><path class="cls-1" d="M188.76,204.46H177.52v27h6.62v-8.36h4.62c5.25,0,8.81-3.93,8.81-9.38S194,204.46,188.76,204.46Zm-1.37,13h-3.25v-7.34h3.37c2.19,0,3.33,1.47,3.33,3.63S189.7,217.48,187.39,217.48Z"/><path class="cls-1" d="M209.84,219.37c-4.81,0-11,1.43-11,6.65,0,3.37,2.61,5.94,6.35,5.94a7.14,7.14,0,0,0,5.79-2.84h.08a9.81,9.81,0,0,0-.08,1.21v1.18h6v-12c0-5-3.33-8-8.7-8a15,15,0,0,0-8.25,2.54l2.27,4.61a10.2,10.2,0,0,1,5.37-1.85c1.44,0,2.76.53,2.76,2.15v.35Zm.64,3.74v.53a3.56,3.56,0,0,1-3.33,3.44,1.66,1.66,0,0,1-1.85-1.66c0-1.78,2.57-2.31,4.57-2.31Z"/><path class="cls-1" d="M228.87,211.57c-5.9,0-8.74,4.62-8.74,9.57s2.92,9.8,8.78,9.8a5.81,5.81,0,0,0,4.88-2h.07s0,.49,0,.72v.64c0,2.87-2.16,3.74-4.5,3.74a12.51,12.51,0,0,1-5.49-1.25l-1.85,5a17.25,17.25,0,0,0,7.37,1.74c5.34,0,11-2.61,11-9.72V212h-6.13v1a3.08,3.08,0,0,0,0,.46h-.11A7.54,7.54,0,0,0,228.87,211.57Zm1.59,13.92c-2.61,0-3.74-2.15-3.74-4.57,0-2.23,1.17-3.9,3.48-3.9,2,0,3.78.76,3.78,4.2S232.16,225.49,230.46,225.49Z"/><path class="cls-1" d="M262.81,221c0-5.41-3.25-9.42-9-9.42-6.28,0-10.14,4.47-10.14,10.18,0,5.18,3.75,10.21,10.71,10.21a13.25,13.25,0,0,0,8.32-2.84l-2.42-4.57a10,10,0,0,1-5.37,2,4.34,4.34,0,0,1-4.54-3.48h12.29A17.5,17.5,0,0,0,262.81,221Zm-12.29-1.7c.34-1.55,1.25-2.91,3.14-2.91a2.7,2.7,0,0,1,2.68,2.91Z"/></svg>