<svg id="svg8" xmlns="http://www.w3.org/2000/svg" viewBox="0 0 545.6 545.6"><defs><style>.cls-1{fill:#8a2c2b;}</style></defs><title>facebook-qr-group</title><polygon class="cls-1" points="376.27 0 376.27 0 376.27 0 357.46 0 357.46 18.81 357.46 37.63 357.46 56.44 376.27 56.44 376.27 37.63 376.27 18.81 395.09 18.81 395.09 0 376.27 0"/><polygon class="cls-1" points="225.76 37.63 225.76 56.44 244.58 56.44 244.58 37.63 244.58 18.81 225.76 18.81 206.95 18.81 206.95 0 188.14 0 188.14 18.81 188.14 37.63 206.95 37.63 225.76 37.63"/><polygon class="cls-1" points="319.83 18.81 319.83 18.81 319.83 18.81 319.83 0 301.02 0 282.21 0 263.39 0 263.39 18.81 263.39 37.63 282.21 37.63 282.21 18.81 301.02 18.81 301.02 37.63 312.98 37.63 319.83 37.63 338.65 37.63 338.65 18.81 319.83 18.81"/><polygon class="cls-1" points="188.14 56.44 188.14 37.63 169.32 37.63 150.51 37.63 150.51 56.44 150.51 75.25 169.32 75.25 169.32 56.44 188.14 56.44"/><rect class="cls-1" x="282.21" y="37.63" width="18.81" height="18.81"/><polygon class="cls-1" points="489.16 37.63 470.34 37.63 470.34 37.63 451.53 37.63 451.53 56.44 451.53 75.25 451.53 94.07 464.2 94.07 470.34 94.07 489.16 94.07 507.97 94.07 507.97 75.25 507.97 56.44 507.97 37.63 489.16 37.63"/><polygon class="cls-1" points="263.39 75.25 282.21 75.25 282.21 56.44 263.39 56.44 244.58 56.44 244.58 75.25 263.39 75.25"/><polygon class="cls-1" points="319.83 56.44 319.83 75.25 338.65 75.25 338.65 94.07 357.46 94.07 376.27 94.07 376.27 75.25 357.46 75.25 357.46 56.44 338.65 56.44 319.83 56.44"/><rect class="cls-1" x="376.28" y="56.44" width="18.81" height="18.81"/><polygon class="cls-1" points="75.25 94.07 94.07 94.07 94.07 75.25 94.07 56.44 94.07 37.63 75.25 37.63 56.44 37.63 37.63 37.63 37.63 56.44 37.63 75.25 37.63 94.07 56.44 94.07 75.25 94.07"/><polygon class="cls-1" points="282.21 112.88 301.02 112.88 301.02 94.07 319.83 94.07 319.83 75.25 301.02 75.25 282.21 75.25 282.21 94.07 282.21 112.88"/><path class="cls-1" d="M37.63,131.7H131.7V0H0V131.7H37.63ZM18.81,94.07V18.81h94.07v94.07H18.81Z"/><rect class="cls-1" x="150.51" y="112.88" width="18.81" height="18.81"/><rect class="cls-1" x="301.02" y="112.88" width="18.81" height="18.81"/><polygon class="cls-1" points="395.09 112.88 395.09 94.07 376.27 94.07 376.27 112.88 376.27 131.7 395.09 131.7 395.09 112.88"/><path class="cls-1" d="M526.79,0H413.9V131.7H545.6V0Zm0,37.63v75.25H432.72V18.81h94.07Z"/><polygon class="cls-1" points="357.46 150.51 357.46 131.7 357.46 112.88 338.65 112.88 338.65 131.7 319.83 131.7 319.83 150.51 338.65 150.51 357.46 150.51"/><polygon class="cls-1" points="131.7 150.51 112.88 150.51 112.88 169.32 131.7 169.32 131.7 188.14 112.88 188.14 112.88 169.32 94.07 169.32 94.07 150.51 75.25 150.51 56.44 150.51 56.44 169.32 37.63 169.32 37.63 188.14 56.44 188.14 56.44 206.95 37.63 206.95 18.81 206.95 18.81 225.76 18.81 244.58 37.63 244.58 56.44 244.58 56.44 225.76 75.25 225.76 75.25 206.95 94.07 206.95 112.88 206.95 131.7 206.95 150.51 206.95 169.32 206.95 188.14 206.95 188.14 188.14 169.32 188.14 169.32 169.32 150.51 169.32 150.51 150.51 131.7 150.51"/><path class="cls-1" d="M188.14,150.51h37.63v18.81H188.14v18.82H207V207H188.14v18.82H207v18.81h18.82V225.77h18.81v18.81h18.81V225.77h18.82V207H225.77V188.14h18.81V169.32h18.81V150.51h18.82V112.88H263.39V131.7H244.58V94.07H225.77V75.26H207V94.07H188.14V75.26H169.32v37.62h18.82V131.7H169.32v37.62h18.82ZM207,112.88h18.82V131.7H207Z"/><rect class="cls-1" x="282.21" y="150.51" width="18.81" height="18.81"/><rect class="cls-1" x="263.39" y="169.32" width="18.81" height="18.81"/><rect class="cls-1" x="338.65" y="169.32" width="18.81" height="18.81"/><polygon class="cls-1" points="489.16 150.51 470.34 150.51 470.34 169.32 470.34 169.32 470.34 169.32 451.53 169.32 451.53 188.14 470.34 188.14 475.2 188.14 489.16 188.14 489.16 169.32 507.97 169.32 507.97 150.51 489.16 150.51"/><rect class="cls-1" x="507.97" y="169.32" width="18.81" height="18.81"/><polygon class="cls-1" points="324.7 188.14 319.83 188.14 301.02 188.14 301.02 206.95 319.83 206.95 319.83 206.95 319.83 206.95 319.83 225.76 338.65 225.76 338.65 206.95 338.65 188.14 324.7 188.14"/><rect class="cls-1" x="489.16" y="188.14" width="18.81" height="18.81"/><rect class="cls-1" x="451.53" y="206.95" width="18.81" height="18.81"/><rect class="cls-1" x="526.79" y="206.95" width="18.81" height="18.81"/><polygon class="cls-1" points="301.02 244.58 319.83 244.58 319.83 225.76 301.02 225.76 282.21 225.76 282.21 244.58 301.02 244.58"/><rect class="cls-1" x="470.34" y="225.77" width="18.81" height="18.81"/><rect class="cls-1" x="507.97" y="225.77" width="18.81" height="18.81"/><rect class="cls-1" x="451.53" y="244.58" width="18.81" height="18.81"/><rect class="cls-1" x="489.16" y="244.58" width="18.81" height="18.81"/><polygon class="cls-1" points="376.27 263.39 376.27 263.39 376.27 263.39 357.46 263.39 357.46 282.21 357.46 301.02 376.27 301.02 376.27 282.21 395.09 282.21 395.09 263.39 376.27 263.39"/><polygon class="cls-1" points="526.79 282.21 545.6 282.21 545.6 263.39 545.6 244.58 526.79 244.58 526.79 263.39 526.79 282.21"/><polygon class="cls-1" points="413.9 206.95 421.2 206.95 432.72 206.95 451.53 206.95 451.53 188.14 432.72 188.14 413.9 188.14 413.9 188.14 413.9 188.14 413.9 169.32 395.09 169.32 395.09 188.14 376.27 188.14 376.27 188.14 376.27 188.14 357.46 188.14 357.46 206.95 357.46 225.76 376.27 225.76 376.27 225.76 376.27 225.76 376.27 244.58 395.09 244.58 413.9 244.58 413.9 244.58 413.9 244.58 413.9 263.39 413.9 282.21 395.09 282.21 395.09 301.02 413.9 301.02 413.9 301.02 413.9 301.02 432.72 301.02 432.72 282.21 451.53 282.21 451.53 263.39 432.72 263.39 432.72 244.58 432.72 225.76 413.9 225.76 400.2 225.76 395.09 225.76 395.09 206.95 413.9 206.95"/><polygon class="cls-1" points="282.21 319.83 282.21 301.02 263.39 301.02 244.58 301.02 244.58 319.83 263.39 319.83 282.21 319.83"/><rect class="cls-1" x="376.28" y="301.02" width="18.81" height="18.81"/><polygon class="cls-1" points="56.44 244.58 56.44 263.39 37.63 263.39 37.63 282.21 37.63 301.02 37.63 319.83 37.63 319.83 37.63 319.83 18.81 319.83 18.81 338.65 18.81 357.46 37.63 357.46 37.63 338.65 56.44 338.65 56.44 319.83 75.25 319.83 75.25 301.02 75.25 282.21 75.25 263.39 75.25 244.58 56.44 244.58"/><rect class="cls-1" x="413.9" y="319.83" width="18.81" height="18.81"/><polygon class="cls-1" points="514.2 282.21 507.97 282.21 489.16 282.21 489.16 263.39 470.34 263.39 470.34 282.21 470.34 282.21 470.34 282.21 451.53 282.21 451.53 301.02 451.53 319.83 451.53 319.83 451.53 319.83 451.53 338.65 432.72 338.65 432.72 357.46 451.53 357.46 470.34 357.46 470.34 338.65 470.34 338.65 470.34 338.65 489.16 338.65 507.97 338.65 507.97 319.83 489.16 319.83 489.16 319.83 489.16 319.83 489.16 301.02 507.97 301.02 507.97 301.02 507.97 301.02 526.79 301.02 526.79 282.21 514.2 282.21"/><path class="cls-1" d="M225.77,338.65V301H112.88V282.21h37.63V263.39h37.63V225.77H150.51v18.81H131.7v18.81H112.88V244.58H131.7V225.77H75.26v18.81H94.07v75.25H75.26v18.82H94.07v37.63h18.81V357.46h37.63V319.83h18.81v18.82H207v18.81h37.63V338.65ZM131.7,319.83v18.82H112.88V319.83Z"/><rect class="cls-1" x="526.79" y="338.65" width="18.81" height="18.81"/><rect class="cls-1" x="244.58" y="357.46" width="18.81" height="18.81"/><polygon class="cls-1" points="75.25 376.27 75.25 357.46 56.44 357.46 37.63 357.46 37.63 376.27 37.63 380.25 37.63 395.09 56.44 395.09 75.25 395.09 94.07 395.09 94.07 376.27 75.25 376.27"/><rect class="cls-1" x="112.88" y="376.28" width="18.81" height="18.81"/><rect class="cls-1" x="225.77" y="376.28" width="18.81" height="18.81"/><rect class="cls-1" x="526.79" y="376.28" width="18.81" height="18.81"/><rect class="cls-1" x="206.95" y="395.09" width="18.81" height="18.81"/><rect class="cls-1" x="413.9" y="413.9" width="18.81" height="18.81"/><polygon class="cls-1" points="188.14 376.27 188.14 357.46 169.32 357.46 169.32 376.27 150.51 376.27 150.51 395.09 150.51 413.9 150.51 418.9 150.51 432.72 169.32 432.72 169.32 451.53 188.14 451.53 188.14 432.72 188.14 413.9 169.32 413.9 169.32 395.09 188.14 395.09 206.95 395.09 206.95 376.27 188.14 376.27"/><polygon class="cls-1" points="94.07 451.53 75.25 451.53 56.44 451.53 37.63 451.53 37.63 470.34 37.63 470.34 37.63 489.16 37.63 507.97 56.44 507.97 75.25 507.97 94.07 507.97 94.07 489.16 94.07 470.34 94.07 470.34 94.07 470.34 94.07 451.53"/><polygon class="cls-1" points="150.51 451.53 150.51 470.34 150.51 470.34 150.51 470.34 150.51 489.16 169.32 489.16 169.32 470.34 169.32 466.08 169.32 451.53 150.51 451.53"/><rect class="cls-1" x="470.34" y="470.34" width="18.81" height="18.81"/><path class="cls-1" d="M112.88,413.9H0v56.44H0V508H0V545.6H131.7V413.9Zm0,94.07h0v18.82H18.81V432.72h94.07v37.62h0V508Z"/><polygon class="cls-1" points="301.02 395.09 282.21 395.09 282.21 376.27 263.39 376.27 263.39 395.09 263.39 413.9 263.39 413.9 263.39 413.9 244.58 413.9 244.58 432.72 244.58 451.53 225.76 451.53 206.95 451.53 206.95 470.34 188.14 470.34 188.14 489.16 188.14 507.97 188.14 507.97 188.14 507.97 169.32 507.97 169.32 526.79 169.32 545.6 188.14 545.6 188.14 526.79 206.95 526.79 206.95 514.5 206.95 507.97 206.95 489.16 225.76 489.16 225.76 470.34 225.76 470.34 225.76 470.34 244.58 470.34 263.39 470.34 263.39 470.34 263.39 470.34 263.39 489.16 244.58 489.16 244.58 502 244.58 507.97 244.58 526.79 263.39 526.79 282.21 526.79 282.21 507.97 282.21 507.97 282.21 489.16 301.02 489.16 301.02 470.34 282.21 470.34 282.21 451.53 282.21 432.72 282.21 413.9 301.02 413.9 319.83 413.9 319.83 395.09 301.02 395.09"/><polygon class="cls-1" points="319.83 489.16 319.83 507.97 319.83 507.97 319.83 507.97 319.83 507.97 319.83 507.97 301.02 507.97 301.02 526.79 282.21 526.79 282.21 545.6 301.02 545.6 319.83 545.6 319.83 526.79 338.65 526.79 338.65 507.97 338.65 504.83 338.65 489.16 319.83 489.16"/><polygon class="cls-1" points="526.79 489.16 526.79 470.34 507.97 470.34 507.97 489.16 507.97 489.16 507.97 489.16 489.16 489.16 489.16 507.97 489.16 507.97 489.16 507.97 489.16 526.79 507.97 526.79 507.97 507.97 507.97 507.97 507.97 507.97 526.79 507.97 526.79 507.97 526.79 507.97 526.79 526.79 545.6 526.79 545.6 512.33 545.6 507.97 545.6 489.16 526.79 489.16"/><path class="cls-1" d="M514.45,357.46H489.16v18.82H432.72V357.46H395.09v18.82H376.28V357.46h18.81V338.65H357.46V301H338.65v18.81h0v18.82H319.83V319.83H301v18.82H263.39v18.81h18.82v18.82h56.44v56.44h18.81v18.81H319.83V432.72H301v37.62h131.7V508h18.81v18.82H413.9V489.16H376.28V508H357.46v18.82H338.65V545.6H489.16V526.79H470.34V489.16H451.53V470.34h18.81V451.53h18.82V432.72H470.34V413.9h18.82v18.82H508V376.28h18.82V357.46ZM376.28,413.9H357.46V395.09h18.82V413.9Zm75.25,0v37.63H395.09V395.09h56.44V413.9Z"/><path class="cls-1" d="M227.23,287.73h6.87v-19h-12v7h4.75v2.59a11.25,11.25,0,0,1-6.82,2.44c-5.22,0-9.63-3.8-9.63-10.2,0-5,2.86-9.49,9.91-9.49a13.33,13.33,0,0,1,8.18,3.1l4-6.16a19.49,19.49,0,0,0-12.92-4.46c-10.25,0-17.63,7.52-17.63,17.3,0,11,7.89,17.43,16.5,17.43a14.12,14.12,0,0,0,8.84-2.91h.09s-.05.71-.05,1.41Z"/><path class="cls-1" d="M247,263.52h-7.81v24.21h8.13v-9.4c0-4.42,2.17-7.29,6.68-7.29a8,8,0,0,1,1.65.14v-8a7,7,0,0,0-1-.09,8.4,8.4,0,0,0-7.7,6h-.1a12.19,12.19,0,0,0,.1-1.51Z"/><path class="cls-1" d="M271.36,263c-7.57,0-13.68,5.12-13.68,12.74s6.11,12.59,13.72,12.59,13.73-5,13.73-12.59S279,263,271.36,263Zm0,18.57a5.48,5.48,0,0,1-5.5-5.83c0-3.67,2.54-6,5.5-6s5.5,2.3,5.5,6A5.47,5.47,0,0,1,271.4,281.53Z"/><path class="cls-1" d="M305.17,287.73H313V263.52h-8.14v10.72c0,3.62-1.64,6.67-5.12,6.67-1.69,0-2.59-.93-2.59-3.19v-14.2H289v15.7c0,6.82,3.81,9.07,8.6,9.07a8.37,8.37,0,0,0,7.57-4.18h.1a12.19,12.19,0,0,0-.1,1.51Z"/><path class="cls-1" d="M325.78,263.52h-7.33v33.61h8.13v-9.07a19.61,19.61,0,0,0-.1-2.07h.1a9.33,9.33,0,0,0,6.16,2.3c6.44,0,11.28-5,11.28-12.64S339.69,263,333.11,263a9,9,0,0,0-7.33,3.34h-.1a13.59,13.59,0,0,0,.1-1.56Zm5.31,6.3c2.82,0,4.75,2.35,4.75,6s-2.21,5.78-4.75,5.78c-3.2,0-4.75-2.86-4.75-5.78C326.34,271.61,328.65,269.82,331.09,269.82Z"/></svg>