<svg id="Layer_1" data-name="Layer 1" xmlns="http://www.w3.org/2000/svg" viewBox="0 0 876.49 1110.7"><defs><style>.cls-1{fill:#8b2c2c;}.cls-2{fill:#8a2c2b;}</style></defs><title>qr--fbr500</title><path class="cls-1" d="M406,444.36v-8.83a19.25,19.25,0,0,0,10.25,3.12c3.86,0,6.82-1.53,6.82-5,0-3-2.59-5-7-5a28.07,28.07,0,0,0-8.88,1.69l2.43-21.14h20.5v8.09H416.65l-.48,4.07a12.48,12.48,0,0,1,2.28-.21,15.05,15.05,0,0,1,10.19,3.43,11.19,11.19,0,0,1,4,9c0,4.28-1.53,7.56-4.6,9.88a18.35,18.35,0,0,1-11.3,3.44A21.6,21.6,0,0,1,406,444.36Z"/><path class="cls-1" d="M446.34,447a14.74,14.74,0,0,1-8.93-2.8,16.76,16.76,0,0,1-5.6-7.08,24.19,24.19,0,0,1-1.79-9.35c0-6.71,2.32-12.68,7.39-16.44a15.65,15.65,0,0,1,17.86,0,16.44,16.44,0,0,1,5.6,7.14,23.38,23.38,0,0,1,1.8,9.3c0,6.71-2.33,12.68-7.4,16.43A14.74,14.74,0,0,1,446.34,447Zm5-11.84a16.09,16.09,0,0,0,0-14.79,5.52,5.52,0,0,0-5-3.12,5.61,5.61,0,0,0-5,3.12,16.15,16.15,0,0,0,0,14.79,5.61,5.61,0,0,0,5,3.12,5.52,5.52,0,0,0,5-3.12Z"/><path class="cls-1" d="M476.51,447a14.74,14.74,0,0,1-8.93-2.8,16.69,16.69,0,0,1-5.6-7.08,24,24,0,0,1-1.8-9.35c0-6.71,2.33-12.68,7.4-16.44a15.65,15.65,0,0,1,17.86,0,16.44,16.44,0,0,1,5.6,7.14,23.38,23.38,0,0,1,1.8,9.3c0,6.71-2.33,12.68-7.4,16.43A14.74,14.74,0,0,1,476.51,447Zm5-11.84a16.09,16.09,0,0,0,0-14.79,5.52,5.52,0,0,0-5-3.12,5.6,5.6,0,0,0-5,3.12,16.09,16.09,0,0,0,0,14.79,5.6,5.6,0,0,0,5,3.12,5.52,5.52,0,0,0,5-3.12Z"/><path class="cls-1" d="M498.89,442.59v3.35h-2.38v-9.88h3.94a4.75,4.75,0,0,1,2,.41,3.23,3.23,0,0,1,1.35,1.19,3.27,3.27,0,0,1,.48,1.75,2.87,2.87,0,0,1-1,2.31,4.27,4.27,0,0,1-2.84.87Zm0-1.84h1.56a1.45,1.45,0,0,0,1.06-.35,1.29,1.29,0,0,0,.36-1,1.58,1.58,0,0,0-.37-1.1,1.31,1.31,0,0,0-1-.42h-1.59Z"/><path class="cls-1" d="M513.93,441.2a5.81,5.81,0,0,1-.54,2.56,4,4,0,0,1-1.52,1.71,4.5,4.5,0,0,1-4.49,0,4,4,0,0,1-1.53-1.66,5.7,5.7,0,0,1-.57-2.47v-.56a5.8,5.8,0,0,1,.53-2.56,4,4,0,0,1,1.53-1.72,4.28,4.28,0,0,1,2.26-.6,4.21,4.21,0,0,1,2.24.6,4.05,4.05,0,0,1,1.53,1.7,5.67,5.67,0,0,1,.56,2.53Zm-2.43-.41a4.16,4.16,0,0,0-.49-2.24,1.59,1.59,0,0,0-1.41-.76c-1.19,0-1.82.89-1.89,2.69v.72a4.23,4.23,0,0,0,.48,2.23,1.6,1.6,0,0,0,1.44.79,1.58,1.58,0,0,0,1.39-.77,4.24,4.24,0,0,0,.49-2.21Z"/><path class="cls-1" d="M518.65,442h-1.13v3.91h-2.38V436h2.38v3.82h.92l1.9-3.82h2.89l-2.72,4.56,3,5.32H520.7Z"/><path class="cls-1" d="M526.69,445.94h-2.38v-9.88h2.38Z"/><path class="cls-1" d="M528.34,445.94v-9.88h3.55a5,5,0,0,1,2.91.7,2.33,2.33,0,0,1,1,2,2.41,2.41,0,0,1-.35,1.31,2.13,2.13,0,0,1-1,.8,2,2,0,0,1,1.19.76A2.23,2.23,0,0,1,536,443a2.62,2.62,0,0,1-.92,2.19,4.38,4.38,0,0,1-2.72.74Zm2.39-5.76H532a1.75,1.75,0,0,0,1.11-.29,1,1,0,0,0,.33-.82,1.06,1.06,0,0,0-.36-.9,1.83,1.83,0,0,0-1.16-.28h-1.16Zm0,1.56v2.37h1.56a1.43,1.43,0,0,0,1-.3,1,1,0,0,0,.34-.83,1.09,1.09,0,0,0-.92-1.24h-2Z"/><path class="cls-1" d="M407.53,459.56v7.26H406V449h6.07a6.41,6.41,0,0,1,4.39,1.42,5,5,0,0,1,1.61,3.9,4.9,4.9,0,0,1-1.55,3.88,6.6,6.6,0,0,1-4.49,1.36Zm0-1.27h4.57a4.84,4.84,0,0,0,3.34-1,3.74,3.74,0,0,0,1.15-2.91,3.91,3.91,0,0,0-1.14-2.95,4.6,4.6,0,0,0-3.25-1.12h-4.67Z"/><path class="cls-1" d="M431.3,458.28H423v7.27h9.58v1.27H421.46V449h11v1.27H423V457h8.33Z"/><path class="cls-1" d="M443.53,449H444a7.83,7.83,0,0,1,3.73.92,6.54,6.54,0,0,1,2.59,2.52,7.52,7.52,0,0,1,0,7.22,6.45,6.45,0,0,1-2.57,2.53,7.86,7.86,0,0,1-3.73.95h-.45v3.74H442.1v-3.74h-.34a7.92,7.92,0,0,1-3.78-.9,6.52,6.52,0,0,1-2.6-2.53,7.52,7.52,0,0,1,0-7.27A6.47,6.47,0,0,1,438,449.9a7.85,7.85,0,0,1,3.77-.9h1.76Zm-1.8,1.25a6,6,0,0,0-4.38,9.95,5.62,5.62,0,0,0,4,1.69h.73V450.25Zm1.8,0V461.9h.35a6,6,0,0,0,4.37-9.94,5.58,5.58,0,0,0-4-1.7Z"/><path class="cls-1" d="M467.51,458.88a10.17,10.17,0,0,1-.86,4.32,6.44,6.44,0,0,1-2.43,2.86,6.6,6.6,0,0,1-3.64,1,6.34,6.34,0,0,1-5-2.23,8.92,8.92,0,0,1-1.93-6V457a10.18,10.18,0,0,1,.87-4.32,6.8,6.8,0,0,1,9.05-3.25,5.84,5.84,0,0,1,.65.35,6.47,6.47,0,0,1,2.43,2.8,10.29,10.29,0,0,1,.9,4.2ZM466,456.94a7.9,7.9,0,0,0-1.46-5,5.24,5.24,0,0,0-7.38-.62,5.19,5.19,0,0,0-.62.62,8,8,0,0,0-1.47,5.11v1.86a7.89,7.89,0,0,0,1.47,5,5.25,5.25,0,0,0,7.4.6,4.25,4.25,0,0,0,.6-.6,8.09,8.09,0,0,0,1.43-5.09Z"/><path class="cls-1" d="M472.81,459.56v7.26H471.3V449h6.07a6.41,6.41,0,0,1,4.39,1.42,5,5,0,0,1,1.61,3.9,4.9,4.9,0,0,1-1.55,3.88,6.6,6.6,0,0,1-4.49,1.36Zm0-1.27h4.56a4.84,4.84,0,0,0,3.34-1,3.74,3.74,0,0,0,1.15-2.91,3.91,3.91,0,0,0-1.14-2.95,4.6,4.6,0,0,0-3.25-1.12h-4.66Z"/><path class="cls-1" d="M488.73,449l6.57,15.73L501.9,449h2v17.82h-1.5v-7.76l.12-8-6.63,15.72h-1.17l-6.6-15.66.12,7.85v7.81h-1.51V449Z"/><path class="cls-1" d="M518.26,461.81h-8.09l-1.84,5h-1.58L513.5,449h1.43l6.74,17.82h-1.56Zm-7.63-1.27h7.15l-3.57-9.71Z"/><path class="cls-1" d="M524.23,449h1.52v16.55h10.09V449h1.5v16.52h1.75l-.11,5.59h-1.4v-4.29H524.23Z"/><path class="cls-1" d="M544,466.82h-1.5V449H544Z"/><path class="cls-1" d="M547,446a1,1,0,0,1,.26-.7,1,1,0,0,1,.74-.3,1,1,0,0,1,1,1,.88.88,0,0,1-.28.68A1,1,0,0,1,547,446Zm3.71,20.83H549.2V449h1.51Zm.17-20.82a1,1,0,0,1,2,.06,1.06,1.06,0,0,1-.25.63,1.13,1.13,0,0,1-1.48,0,1,1,0,0,1-.3-.7Z"/><path class="cls-1" d="M496.51,431.71a.71.71,0,0,1,.19-.5.66.66,0,0,1,.53-.2.69.69,0,0,1,.53.2.71.71,0,0,1,.19.5.65.65,0,0,1-.19.49.75.75,0,0,1-.53.19.74.74,0,0,1-.53-.19A.65.65,0,0,1,496.51,431.71Z"/><path class="cls-1" d="M507.84,420.05v8.38a4.25,4.25,0,0,1-.55,2.15,3.54,3.54,0,0,1-1.52,1.42,5,5,0,0,1-2.25.49,4.42,4.42,0,0,1-3.11-1.06,3.9,3.9,0,0,1-1.21-2.93v-8.45h1v8.3a3.21,3.21,0,0,0,.89,2.41,3.3,3.3,0,0,0,2.4.85,3.27,3.27,0,0,0,2.4-.86,3.21,3.21,0,0,0,.88-2.39v-8.31Z"/><path class="cls-1" d="M517.17,428.87H511.6l-1.26,3.45h-1.09l4.65-12.27h1l4.65,12.27h-1.08Zm-5.25-.87h4.93l-2.47-6.69Z"/><path class="cls-1" d="M391.38,472.92,382,456c-2.39-4.31-4.29-9-11.44-9h-.07a18.84,18.84,0,0,0,14.07-7.84,18.42,18.42,0,0,0,3.54-11h0V427a18.87,18.87,0,0,0-17.42-17.62h0l-1.05-.05H344V397.13a2.09,2.09,0,1,0-4.17-.29,1.41,1.41,0,0,0,0,.29v12.12H325.71a2.09,2.09,0,0,0,0,4.18h14.14v51.35a2.09,2.09,0,0,0,4.17.29,1.41,1.41,0,0,0,0-.29V413.43h9.92A16.79,16.79,0,0,1,355,447h-7.49c3,.77,7.32,3,10.65,8.53l9.34,16.89c2.39,4.31,4.29,9,11.43,9H402C399,480.68,394.71,478.48,391.38,472.92Z"/><path class="cls-1" d="M664.89,0V211.6h211.6V0ZM846.22,181.33H695.16V30.27H846.22Z"/><rect class="cls-1" x="725.33" y="60.44" width="90.72" height="90.72"/><rect class="cls-1" x="60.44" y="60.44" width="90.72" height="90.72"/><path class="cls-1" d="M211.61,0H0V211.6H211.61ZM181.33,181.33H30.27V30.27H181.33Z"/><rect class="cls-1" x="30.22" y="423.11" width="30.27" height="151.16"/><path class="cls-1" d="M0,755.55V876.49H211.61V664.89H0Zm30.27.05V695.16H181.33V846.22H30.27Z"/><rect class="cls-1" x="664.89" y="664.89" width="30.27" height="30.27"/><polygon class="cls-1" points="60.44 755.55 60.44 755.6 60.44 816.05 151.16 816.05 151.16 755.6 151.16 755.55 151.16 725.33 60.44 725.33 60.44 755.55"/><path class="cls-1" d="M876.49,483.6V272H846.27V241.78H816v60.44H755.61V272H725.38V241.78H664.89V272h-60.4V211.6h30.23V120.89H604.49V90.72h30.23V30.22H604.49V0H513.78V60.44H483.61V30.22H453.33V60.44H423.16V30.22H362.72V0H332.44V30.22H302.27V0H272V30.22H241.78V60.49H272V90.72h30.22V241.78H272.05V151.11H241.78v90.67H120.89V272H90.67v30.22H30.22v60.5H60.44v30.22H90.67v30.22h30.22v30.22h30.22V483.6h30.22v30.23h30.23V544h-60.4V513.78H120.94V483.56H90.67v30.27h30.22V544H90.67v30.27h30.22v30.17H60.44v30.28h90.72V604.49h30.17v30.23h60.45V755.6H272v30.23h60.44V816H302.22v30.27h30.22v30.22h30.28V846.27h30.17v30.22H544.05V846.27h30.17v30.22h89.72V846.27h60.39v30.22h30.28V846.22H724.38V816H663.94V785.78H574.27V755.6H694.11v30.23h30.27V755.6h31.23V725.38h30.22V695.11H755.61V604.44H725.38V544.05h60.4v30.22H816v60.4H785.78v30.27h30.27V634.72h30.17v90.61H816v30.22H784.78v30.23H754.55v30.27h30.28V785.83H815v90.66h30.27V846.27h30.22V785.78H845.27V755.6h31.22V634.67H846.27V604.49h30.22V513.78H846.27V483.6ZM120.89,332.44H90.72V302.27h30.17Zm30.22,241.78H120.94V544.05h30.17ZM544.05,30.27h60.39V60.44H574.22V90.67H544.05Zm30.22,120.84V120.94h30.17v30.17Zm30.17,30.27v30.18H574.27V181.38ZM483.61,120.94h30.22V90.72H544V211.56H513.83V181.33H483.61ZM453.38,60.49h30.17V90.67H453.38Zm0,120.89h30.17v30.18H453.38ZM392.94,90.72h60.39v30.17H392.94Zm60.39,60.44v30.17H423.16V151.16ZM362.72,60.49h30.17V90.67H362.72ZM332.5,120.94h60.39v30.17H332.5Zm0,60.44h30.17v30.18H332.5ZM272.05,60.44V30.27h30.17V60.44ZM241.83,241.83H272V272H241.83Zm-60.45,30.22h30.18v30.17H181.38Zm0,211.51V453.38h30.18v30.18Zm60.4,120.88h-60.4V574.27h30.23V544.05h30.17ZM272,634.67H241.83V604.49H272Zm0-151.11H241.83V453.38H272Zm0-90.67H211.61V362.67H181.33v30.27h30.23v30.17H181.33v30.22H151.16V423.11H120.94V332.49h30.22V302.27h30.17v30.22h30.28V302.27h30.17v30.22h30.27V272.05h60.39v30.17H302.22v60.45H272Zm30.22,272H272.05V634.72h30.17Zm0-60.45H272.05V544.05h30.17Zm30.22,90.67H302.27V664.94h30.17Zm90.67,151.11H392.94V816H362.72V785.78H332.5V755.6h30.22V725.33H332.5V695.16h60.39V755.6h30.22Zm0-181.33H332.5V634.72h60.44V574.27h90.61v30.17H423.11ZM544,695.11H483.55v30.27h30.23v30.17H483.55v30.28h30.23v60.39h-60.4V725.33H423.16V664.94h30.22V634.72h30.23V604.49h30.17v60.45H544ZM483.61,574.22V544.05h30.17v30.17Zm90.61,181.33H544.05V725.38h30.17Zm0-90.66H544.05V634.72h30.17Zm0-60.45H513.83V574.27h60.39Zm29.22,211.61h30.23v30.17h-59.4V816.05Zm1-181.38H574.27V604.49h30.17Zm0-181.34H580V492.5h-5.74v21.28H513.83V492.5H498v6.19H453.33v15.09H423.16V498.69H370.87V492.5h-8.2v21.33h30.22v60.39H332.5V544H302.27V453.33H272.05V392.94h30.22V362.72H332.5V302.27h30.22V272.05h30.22V241.78H362.72V211.6h30.22V181.38h30.17v60.45h30.22V362.67H423.16V302.22H392.89v60.45H362.67v30.22h8.2V377.8H483.61V272.05h30.22V241.83H544v30.22h30.22v30.17H513.78v90.67h30.27v-60.4h30.22V302.27h30.17v30.22h30.23v30.18H574.22v30.22H580v.05h54.76V362.72H665V302.27h30.17v90.62H664.89v90.67H634.72V453.33Zm90.67,30.27v30.18H664.94V483.6Zm-90.62,30.23h60.4v30.22h30.22v60.39H634.72V574.22H604.49Zm120.84,211.5H634.72V634.72h90.61Zm0-181.33H695.16V513.83h30.17Zm0-90.67H695.16V392.94h30.17Zm60.5-120.84H816v30.18H785.83Zm60.39,241.73H816.05V513.83h30.17Zm0-90.66H816v30.22H725.38v-60.4h30.17V483.6h30.28V453.33H755.61V392.89H725.38V302.27h30.17v60.45h30.23v60.44H816v30.22h30.22Zm0-60.45H816.05V362.72h30.17Zm0-90.67H816.05V302.27h30.17Z"/><path class="cls-2" d="M457.72,984.1c-4.45,0-7.66,1.46-10.91,2.95v33.64a70.94,70.94,0,0,0,7.85.29c10.69,0,12.15-4.89,12.15-11.72V993.2C466.81,988.15,465.14,984.1,457.72,984.1Zm-71-1.83c-7.41,0-9.1,4.07-9.1,9.1v2.84h18.2v-2.84C395.86,986.34,394.16,982.27,386.76,982.27Zm-137.45,35c0,4,1.87,6.06,6,6.06,4.45,0,7.09-1.45,10.35-3v-8h-9.75c-4.61,0-6.63.86-6.63,4.87Zm277.42-33.18c-7.43,0-10,4-10,9.09v18.41c0,5.06,2.57,9.12,10,9.12s10-4.06,10-9.12V993.2c0-5.05-2.58-9.1-10-9.1Zm-313.81,53.83H191.09V985.11H180.18V966.9h10.91V956c0-14.85,6.16-23.68,23.65-23.68h14.57v18.21H220.2c-6.81,0-7.26,2.55-7.26,7.29l0,9.11h16.49l-1.93,18.2H212.92Zm74.6.14h-18.2l-.8-4.6a41.66,41.66,0,0,1-20.61,5.35c-13.34,0-20.44-8.92-20.44-21.24,0-14.55,8.29-19.74,23.11-19.74h15.09V994.7c0-7.43-.86-9.6-12.27-9.6H234.74l1.82-18.2H257c25.05,0,30.53,7.91,30.53,28v43.22Zm61.85-51.64c-11.32-1.94-14.57-2.37-20-2.37-9.79,0-12.75,2.16-12.75,10.47v15.72c0,8.3,3,10.47,12.75,10.47,5.44,0,8.69-.43,20-2.39v17.76c-9.91,2.22-16.37,2.81-21.83,2.81-23.43,0-32.75-12.32-32.75-30.13V996c0-17.82,9.32-30.16,32.75-30.16,5.46,0,11.92.58,21.83,2.82Zm68.31,22.35h-40v1.47c0,8.3,2.95,10.47,12.74,10.47,8.79,0,14.16-.43,25.46-2.39v17.76a115,115,0,0,1-27.27,2.81c-23.44,0-32.75-12.32-32.75-30.13V994.2c0-15.57,6.9-28.33,30.92-28.33s30.92,12.6,30.92,28.33Zm70.95.33c0,17.21-4.91,29.76-34.7,29.76-10.76,0-17.08-.94-28.94-2.77V937.75l21.81-3.63v34.39a49.6,49.6,0,0,1,16.37-2.64c21.83,0,25.46,9.78,25.46,25.51v17.74Zm70,.38c0,14.84-6.13,29.24-31.77,29.24s-31.89-14.4-31.89-29.24V995.18c0-14.85,6.24-29.25,31.89-29.25s31.77,14.38,31.77,29.25v14.32Zm69.9,0c0,14.84-6.14,29.24-31.77,29.24s-31.9-14.4-31.9-29.24V995.18c0-14.85,6.25-29.25,31.9-29.25s31.77,14.38,31.77,29.25v14.32Zm71.73,28.44H676.56l-20-33.39v33.39H634.73V937.75l21.83-3.63V998.6l20-31.7h23.65l-21.84,34.6ZM596.64,984.1c-7.42,0-10,4-10,9.1v18.41c0,5.06,2.57,9.12,10,9.12s10-4.06,10-9.12V993.2C606.66,988.15,604,984.1,596.64,984.1Zm116,41.36a6.76,6.76,0,0,1,0,13.51,6.76,6.76,0,0,1,0-13.51Zm0,1.07a5.71,5.71,0,1,0,5.41,5.72,5.55,5.55,0,0,0-5.41-5.72Zm-1.25,9.61h-1.2v-7.51a15,15,0,0,1,2.12-.18,4,4,0,0,1,2.34.57,1.77,1.77,0,0,1,.68,1.56,1.86,1.86,0,0,1-1.46,1.83v0c.65.12,1.1.72,1.25,1.82a6.2,6.2,0,0,0,.48,1.86h-1.26a5.8,5.8,0,0,1-.51-1.92c-.14-1-.65-1.32-1.61-1.32h-.83v3.23Zm0-4.16h.87c1,0,1.81-.36,1.81-1.29,0-.66-.47-1.33-1.81-1.33a6.15,6.15,0,0,0-.87.06Z"/><path class="cls-2" d="M205.2,1092.67a10,10,0,0,1-5.71-1.73,11,11,0,0,1-3.92-4.76h-.34l.27,4.55v20h-3.63v-60.22h3l.38,5.69h.34a12.38,12.38,0,0,1,3.92-4.82,8.84,8.84,0,0,1,5.21-1.68q12.13,0,12.14,21.43,0,10.35-3,16T205.2,1092.67Zm-.73-39.56a7.25,7.25,0,0,0-6.76,4q-2.22,4-2.21,12.56v1.19q0,9.54,2.25,14t6.87,4.49q4.27,0,6.36-4.45t2.08-13.84q0-9-1.95-13.48A6.75,6.75,0,0,0,204.47,1053.11Z"/><path class="cls-2" d="M242,1091.91l-.46-5.81h-.15q-3,6.57-9,6.57a7.81,7.81,0,0,1-6.51-3.22c-1.64-2.15-2.46-5-2.46-8.65q0-5.92,3.55-9.38t10-3.76l4.47-.23V1064c0-3.87-.49-6.68-1.45-8.45a5.07,5.07,0,0,0-4.82-2.66,13.63,13.63,0,0,0-7.25,2.33l-1.57-2.86a17,17,0,0,1,9.05-2.68q5.12,0,7.37,3.23t2.26,10.79v28.22Zm-8.82-2.33a6.67,6.67,0,0,0,6.05-3.84q2.16-3.84,2.16-10.86v-4.32l-4.32.23q-5,.27-7.43,2.77t-2.42,7.31q0,4.52,1.6,6.61A5.19,5.19,0,0,0,233.19,1089.58Z"/><path class="cls-2" d="M277.6,1050.48V1053l-5.65.65a12.31,12.31,0,0,1,1.87,4.26,22.48,22.48,0,0,1,.72,5.67,16.2,16.2,0,0,1-2.73,9.78,8.5,8.5,0,0,1-7.19,3.74h-.92l-.8-.08a14.49,14.49,0,0,0-2.89,2.6,4.67,4.67,0,0,0-1.05,3,3.15,3.15,0,0,0,1.38,2.73,6.27,6.27,0,0,0,3.7,1h2.6q5.53,0,8.59,2.87t3.06,8.28a12.08,12.08,0,0,1-4.11,9.63c-2.74,2.36-6.34,3.55-10.83,3.55-3.74,0-6.61-1-8.63-2.85s-3-4.62-3-8.19a11.12,11.12,0,0,1,2-6.66,13,13,0,0,1,6.23-4.37,7.83,7.83,0,0,1-3.08-2.33,5.65,5.65,0,0,1-1.16-3.56,5,5,0,0,1,1.24-3.34,20.89,20.89,0,0,1,3.53-3.15,9.79,9.79,0,0,1-4.79-4.69,16.93,16.93,0,0,1-1.62-7.64q0-6.62,2.78-10.43a9,9,0,0,1,7.64-3.82,10.44,10.44,0,0,1,4.36.81Zm-22.3,48.88a8.7,8.7,0,0,0,2,6.14q2,2.22,6.17,2.22a11.75,11.75,0,0,0,8.11-2.67,9.34,9.34,0,0,0,3-7.34,7.82,7.82,0,0,0-2-5.78,8.06,8.06,0,0,0-5.94-2H264a8.17,8.17,0,0,0-6.21,2.61A9.6,9.6,0,0,0,255.3,1099.36Zm2.25-35.37q0,5.09,1.87,7.7a5.84,5.84,0,0,0,5,2.62q6.64,0,6.64-10.7a16,16,0,0,0-1.7-8,5.4,5.4,0,0,0-4.94-2.91,5.58,5.58,0,0,0-5.08,3C258.14,1057.62,257.55,1060.4,257.55,1064Z"/><path class="cls-2" d="M296,1092.67a11.26,11.26,0,0,1-10.1-5.59q-3.54-5.6-3.54-15.6,0-10.62,3.15-16.21t9.07-5.6q5.16,0,8.14,4.91t3,13.23v3.36H286q.07,9.06,2.56,13.56a8.07,8.07,0,0,0,7.52,4.51,16.23,16.23,0,0,0,8.21-2.56v3.51A15.48,15.48,0,0,1,296,1092.67ZM294.33,1053q-7.49,0-8.21,14.93H302Q302,1061,300,1057T294.33,1053Z"/></svg>